<svg width="50" height="50" viewBox="0 0 50 50" fill="none" xmlns="http://www.w3.org/2000/svg">
<path d="M8.33337 25C8.33337 17.8034 8.33337 14.2051 10.2736 11.7512C10.7071 11.2029 11.203 10.7071 11.7513 10.2736C14.2051 8.33331 17.8034 8.33331 25 8.33331V8.33331C32.1967 8.33331 35.795 8.33331 38.2488 10.2736C38.7971 10.7071 39.293 11.2029 39.7264 11.7512C41.6667 14.2051 41.6667 17.8034 41.6667 25V37.6666C41.6667 39.5523 41.6667 40.4951 41.0809 41.0809C40.4951 41.6666 39.5523 41.6666 37.6667 41.6666H25C17.8034 41.6666 14.2051 41.6666 11.7513 39.7264C11.203 39.2929 10.7071 38.797 10.2736 38.2488C8.33337 35.7949 8.33337 32.1966 8.33337 25V25Z" stroke="#33363F" stroke-width="5"/>
<path d="M18.75 22.9167L31.25 22.9167" stroke="#33363F" stroke-width="5" stroke-linecap="round" stroke-linejoin="round"/>
<path d="M25 31.25H31.25" stroke="#33363F" stroke-width="5" stroke-linecap="round" stroke-linejoin="round"/>
</svg>
